<?xml version="1.0" encoding="UTF-8" standalone="no"?>
<svg
   xmlns:dc="http://purl.org/dc/elements/1.1/"
   xmlns:cc="http://creativecommons.org/ns#"
   xmlns:rdf="http://www.w3.org/1999/02/22-rdf-syntax-ns#"
   xmlns:svg="http://www.w3.org/2000/svg"
   xmlns="http://www.w3.org/2000/svg"
   xmlns:sodipodi="http://sodipodi.sourceforge.net/DTD/sodipodi-0.dtd"
   xmlns:inkscape="http://www.inkscape.org/namespaces/inkscape"
   viewBox="0 0 532 95"
   version="1.1"
   id="svg21"
   sodipodi:docname="ame-logo.svg"
   inkscape:version="0.92.3 (2405546, 2018-03-11)">
  <metadata
     id="metadata25">
    <rdf:RDF>
      <cc:Work
         rdf:about="">
        <dc:format>image/svg+xml</dc:format>
        <dc:type
           rdf:resource="http://purl.org/dc/dcmitype/StillImage" />
      </cc:Work>
    </rdf:RDF>
  </metadata>
  <sodipodi:namedview
     pagecolor="#ffffff"
     bordercolor="#666666"
     borderopacity="1"
     objecttolerance="10"
     gridtolerance="10"
     guidetolerance="10"
     inkscape:pageopacity="0"
     inkscape:pageshadow="2"
     inkscape:window-width="1701"
     inkscape:window-height="875"
     id="namedview23"
     showgrid="false"
     inkscape:zoom="1"
     inkscape:cx="123.5"
     inkscape:cy="26.5"
     inkscape:window-x="4985"
     inkscape:window-y="523"
     inkscape:window-maximized="0"
     inkscape:current-layer="svg21" />
  <defs
     id="defs7">
    <linearGradient
       id="a"
       x1="55.14688"
       x2="55.14688"
       y1="110.10797"
       y2="0.25681253"
       gradientTransform="matrix(-1.165799,0,0,0.85778081,531.67032,-2e-6)"
       gradientUnits="userSpaceOnUse">
      <stop
         stop-color="#ED0059"
         offset=".35"
         id="stop2" />
      <stop
         stop-color="#F27076"
         offset="1"
         id="stop4" />
    </linearGradient>
  </defs>
  <g
     id="g830"
     transform="rotate(-180,265.83516,47.330623)">
    <path
       d="m 117.60032,54.329998 c -5.63,-2.57 -8.26,-7 -8.26,-13.95 v -12.76 c 0.14,-6.65 2.76,-10.92 8.24,-13.42 2.92,-1.34 7.92,-2.18 13.38,-2.26 h 19.97 a 5.39,5.39 0 0 1 3.84,1.59 5.44,5.44 0 0 1 1.6,3.86 v 58.61 a 1,1 0 0 1 -1.05,1 h -4.71 a 1,1 0 0 1 -1.05,-1 v -19.41 h -18.61 c -5.43,-0.08 -10.43,-0.92 -13.35,-2.26 z m 32,-4.57 v -31 h -18.61 c -2.22,0 -7.63,0.26 -10.54,1.59 -2.91,1.33 -4.26,3.92 -4.26,7.8 v 12.23 c 0,3.87 1.43,6.5 4.25,7.79 2.82,1.29 8.34,1.56 10.53,1.59 z"
       id="path9"
       inkscape:connector-curvature="0"
       style="fill:#00bdff;fill-rule:evenodd" />
    <path
       d="m 8.49032,13.659998 c 2.91,-1.32 7.9,-2.17 13.34,-2.25 h 3.77 c 5.42,0.08 10.41,0.93 13.31,2.25 5.62,2.57 8.24,7 8.24,13.9 v 33.89 c 0,6.91 -2.62,11.32 -8.24,13.89 -2.9,1.33 -7.88,2.17 -13.33,2.25 h -3.77 c -5.42,-0.08 -10.41,-0.92 -13.32,-2.25 -5.62,-2.57 -8.24,-7 -8.24,-13.89 v -36.23 c 0,-6.92 2.62,-8.99 8.24,-11.56 z m -1.45,47.79 c 0,3.86 1.43,6.47 4.25,7.76 2.9,1.32 8.3,1.54 10.49,1.58 h 3.81 c 2.22,0 7.63,-0.26 10.52,-1.58 2.89,-1.32 4.25,-3.9 4.25,-7.76 v -33.89 c 0,-3.86 -1.43,-6.47 -4.25,-7.76 -2.82,-1.29 -8.3,-1.55 -10.49,-1.58 h -3.81 c -2.22,0 -7.61,0.25 -10.52,1.58 -2.91,1.33 -4.25,3.9 -4.25,7.76 z m 47.47,14.75 a 5.58,5.58 0 0 0 0.35,-1.79 v -6.71 c 0,-5.06 1.43,-8.81 4.38,-11.46 l 1.51,-1.35 -1.51,-1.36 c -2.93,-2.65 -4.35,-6.39 -4.35,-11.44 v -14.47 c 0.16,-6.62 2.78,-10.91 8.28,-13.42 2.92,-1.34 7.94,-2.18 13.41,-2.26 h 20 a 5.46,5.46 0 0 1 5.46,5.45 v 58.61 a 1,1 0 0 1 -1,1.05 h -4.74 a 1,1 0 0 1 -1,-1.05 v -17.69 h -18.7 c -2.2,0 -7.63,0.26 -10.54,1.59 -2.91,1.33 -4.39,3.92 -4.39,7.8 v 6.49 c 0,0.67 0,1.33 -0.08,2 a 1,1 0 0 1 -1,0.89 h -5.56 a 0.63,0.63 0 0 1 -0.52,-0.88 z m 7.16,-34.11 c 0,3.88 1.44,6.51 4.27,7.8 2.83,1.29 8.35,1.55 10.54,1.58 h 18.72 v -32.72 h -18.64 c -2.23,0 -7.66,0.25 -10.57,1.58 -2.91,1.33 -4.27,3.92 -4.27,7.8 z"
       id="path11"
       inkscape:connector-curvature="0"
       style="fill:#00bdff;fill-rule:nonzero" />
    <path
       d="m 251.92032,11.309998 h 1.79 a 17.29,17.29 0 0 1 11.58,6.59 l 11.65,15 a 2.21,2.21 0 0 0 3.91,0 l 11.64,-15 a 17.28,17.28 0 0 1 11.59,-6.59 h 1 a 12,12 0 0 1 12.06,12 v 52 c 0,0.862 -0.698,1.56 -1.56,1.56 h -12 a 1.56,1.56 0 0 1 -1.56,-1.56 v -43.31 a 1.18,1.18 0 0 0 -2.11,-0.72 l -8,10.28 a 16.53,16.53 0 0 1 -13,6.65 16.55,16.55 0 0 1 -13,-6.64 l -8,-10.3 a 1.18,1.18 0 0 0 -2.11,0.73 v 43.31 c 0,0.862 -0.698,1.56 -1.56,1.56 h -11.95 a 1.56,1.56 0 0 1 -1.62,-1.56 v -52.76 a 11.24,11.24 0 0 1 11.25,-11.24 z m -66.07,2.69 c 3.45,-1.58 8.91,-2.53 15,-2.62 h 3.82 c 6.07,0.09 11.52,1 15,2.62 6.9,3.15 10.47,8.9 10.62,17.08 v 27.18 c -0.32,7.85 -3.88,13.39 -10.6,16.46 -7.72,3.53 -24,3.53 -31.75,0 a 16.94,16.94 0 0 1 -10,-12.06 l -0.17,-0.73 a 1.56,1.56 0 0 1 1.1,-1.85 l 11.03,-3.08 a 1.56,1.56 0 0 1 1.94,1.17 c 0,0 0.83,3.21 2.82,4 3.57,1.47 15.21,1.52 18.72,-0.08 0.54,-0.25 1.81,-0.83 1.81,-4 v -5.9 h -14.37 c -6.06,-0.09 -11.52,-1 -15,-2.62 -6.7,-3.07 -10.26,-8.58 -10.6,-16.39 v -2.08 c 0.17,-8.18 3.73,-13.93 10.63,-17.1 z m 5.62,19 c 0,3.14 1.27,3.72 1.81,4 1.46,0.66 4.91,1.13 8.75,1.19 h 14.34 v -7.58 c 0,-3.13 -1.27,-3.71 -1.81,-4 -1.46,-0.67 -4.91,-1.14 -8.75,-1.2 h -3.74 c -3.88,0.06 -7.33,0.53 -8.79,1.2 -0.54,0.25 -1.81,0.83 -1.81,4 z m 146.68,-18.84 c 7.72,-3.53 24,-3.53 31.75,0 a 17,17 0 0 1 10.05,12.07 l 0.16,0.72 a 1.55,1.55 0 0 1 -1.1,1.85 l -11.13,3.11 a 1.56,1.56 0 0 1 -1.94,-1.17 c 0,0 -0.83,-3.2 -2.82,-4 -3.57,-1.47 -15.21,-1.52 -18.72,0.09 -0.54,0.24 -1.81,0.82 -1.81,4 v 5.87 h 14.37 c 6.06,0.08 11.52,1 15,2.61 6.7,3.07 10.26,8.58 10.6,16.39 v 2.08 c -0.16,8.18 -3.72,13.93 -10.62,17.09 -3.45,1.57 -8.9,2.53 -15,2.62 h -3.82 c -6.07,-0.09 -11.52,-0.46 -15,-2 -6.9,-3.16 -10.47,-8.91 -10.62,-17.09 v -27.78 c 0.37,-7.85 3.93,-13.39 10.65,-16.46 z m 4.44,44.71 c 0,3.13 1.27,3.71 1.81,4 1.46,0.67 4.91,0.55 8.75,0.61 h 3.74 c 3.88,-0.06 7.33,-0.53 8.79,-1.19 0.54,-0.25 1.81,-0.83 1.81,-4 v -2.38 c 0,-3.14 -1.27,-3.72 -1.81,-4 -1.46,-0.67 -4.91,-1.14 -8.75,-1.2 h -14.34 z"
       id="path13"
       inkscape:connector-curvature="0"
       style="fill:#170085;fill-rule:nonzero" />
    <path
       d="m 407.17032,20.889998 17.5,-17.42 c 4.41,-4.343 11.49,-4.343 15.9,0 l 18.87,18.71 c 4.4,4.358 11.49,4.358 15.89,0 l 18.83,-18.71 c 4.407,-4.342 11.483,-4.342 15.89,0 l 17.55,17.43 c 4.856,4.843 5.114,12.626 0.59,17.78 l -52.86,52.5 c -4.4,4.358 -11.49,4.358 -15.89,0 l -52.87,-52.51 c -4.521,-5.157 -4.259,-12.94 0.6,-17.78 z"
       id="path15"
       inkscape:connector-curvature="0"
       style="fill:url(#a);fill-rule:nonzero" />
    <path
       d="m 475.33032,22.179998 c -4.4,4.358 -11.49,4.358 -15.89,0 l -18.84,-18.71 a 11.26,11.26 0 0 0 -7.52,-3.25 h 68.59 a 11.28,11.28 0 0 0 -7.53,3.25 z"
       id="path17"
       inkscape:connector-curvature="0"
       style="fill:#170085;fill-rule:nonzero" />
  </g>
</svg>
